Coordinates
version=1
nRows=5
nColumns=63
inDegrees=yes

Units are S.I. units (second, meters, Newtons, ...)
If the header above contains a line with 'inDegrees', this indicates whether rotational values are in degrees (yes) or radians (no).

endheader
time	pelvis_tilt	pelvis_list	pelvis_rotation	pelvis_tx	pelvis_ty	pelvis_tz	hip_flexion_r	hip_adduction_r	hip_rotation_r	knee_angle_r	knee_angle_r_beta	ankle_angle_r	subtalar_angle_r	mtp_angle_r	hip_flexion_l	hip_adduction_l	hip_rotation_l	knee_angle_l	knee_angle_l_beta	ankle_angle_l	subtalar_angle_l	mtp_angle_l	L5_S1_Flex_Ext	L5_S1_Lat_Bending	L5_S1_axial_rotation	L4_L5_Flex_Ext	L4_L5_Lat_Bending	L4_L5_axial_rotation	L3_L4_Flex_Ext	L3_L4_Lat_Bending	L3_L4_axial_rotation	L2_L3_Flex_Ext	L2_L3_Lat_Bending	L2_L3_axial_rotation	L1_L2_Flex_Ext	L1_L2_Lat_Bending	L1_L2_axial_rotation	L1_T12_Flex_Ext	L1_T12_Lat_Bending	L1_T12_axial_rotation	Abs_r3	Abs_r2	Abs_r1	Abs_t1	Abs_t2	neck_flexion	neck_bending	neck_rotation	arm_flex_r	arm_add_r	arm_rot_r	elbow_flex_r	pro_sup_r	wrist_flex_r	wrist_dev_r	arm_flex_l	arm_add_l	arm_rot_l	elbow_flex_l	pro_sup_l	wrist_flex_l	wrist_dev_l
      5.98148148	     -3.73562689	     -8.25069185	     98.46116346	      0.09098749	      0.98492290	      0.45512317	      2.25161324	     -0.76380734	     -4.49557892	     10.03513725	      0.17514619	     28.92076796	      8.87126535	      0.00000000	      0.26100083	      0.77155809	     -3.22420445	      2.60510634	      0.04546768	     25.07785700	      6.46077833	      0.00000000	     -0.33957413	      0.54312663	     -0.84448217	     -0.63062312	      0.72235842	     -0.89726231	     -0.55788634	      1.32055810	     -0.89726231	     -0.38809927	      1.32055810	     -0.73892190	     -0.31532854	      1.10754383	     -0.68614176	     -0.19403266	      0.84130316	     -0.63336163	     -2.42554405	      6.14395711	     -4.69675650	      0.00000000	      0.00000000	      0.10558996	      1.62879339	      3.13899378	     32.97961437	    -35.00575229	      1.45033797	     43.05873019	     77.18426726	     -1.46025745	     23.74955211	     -1.66995687	    -18.44190914	     27.48939995	     92.74219448	     89.40749018	      9.86009346	     12.37465774
      6.00000000	     -3.77168320	     -8.15960372	     98.56987131	      0.09073970	      0.98542993	      0.45478752	      1.84901508	     -0.76473061	     -4.47997473	      9.45592946	      0.16503710	     28.68711652	      9.05937283	      0.00000000	      0.14078060	      0.77770101	     -3.79288634	      2.59966036	      0.04537263	     25.24898964	      7.48130552	      0.00000000	     -0.32762256	      0.49737589	     -0.93601476	     -0.60842785	      0.66150993	     -0.99451568	     -0.53825110	      1.20931973	     -0.99451568	     -0.37443982	      1.20931973	     -0.81901292	     -0.30423031	      1.01424891	     -0.76051199	     -0.18720353	      0.77043525	     -0.70201107	     -2.34017516	      5.62641550	     -5.20583330	      0.00000000	      0.00000000	      1.24813152	      1.85990429	      3.37389402	     30.80048691	    -34.77928553	      1.21630738	     46.04464107	     80.55413131	      1.82559654	     22.92126980	     -2.26978566	    -18.29612857	     25.97100489	     92.99482322	     89.42551769	     14.67079951	     15.67779210
      6.01851852	     -3.79556789	     -8.07765611	     98.68260922	      0.09070290	      0.98583509	      0.45413680	      1.45341097	     -0.73046528	     -4.29512532	      8.91816599	      0.15565136	     28.49313756	      8.98520485	      0.00000000	     -0.01327210	      0.77252727	     -4.10885115	      2.52947118	      0.04414760	     25.41072128	      8.08972466	      0.00000000	     -0.31712639	      0.44470199	     -0.97140974	     -0.58893542	      0.59145364	     -1.03212285	     -0.52100695	      1.08124841	     -1.03212285	     -0.36244375	      1.08124841	     -0.84998352	     -0.29448357	      0.90683629	     -0.78927041	     -0.18120602	      0.68884338	     -0.72855730	     -2.26520211	      5.03055781	     -5.40268954	      0.00000000	      0.00000000	      2.53147079	      2.18190848	      3.17594621	     27.92548893	    -34.84418780	      1.23826299	     49.92197281	     81.15658352	      3.40653969	     22.75810658	     -2.72656319	    -18.52183544	     25.40290296	     93.10943968	     89.45032015	     16.61032782	     16.58253096
      6.03703704	     -3.84523731	     -8.10440806	     98.69070894	      0.09075864	      0.98604503	      0.45306131	      1.19284643	     -0.74926249	     -4.08589125	      8.46136640	      0.14767870	     28.39995264	      8.88377393	      0.00000000	     -0.13077026	      0.82125430	     -4.32052409	      2.36915062	      0.04134948	     25.52011933	      8.43629588	      0.00000000	     -0.29185700	      0.38510953	     -0.96734642	     -0.54200764	      0.51219568	     -1.02780558	     -0.47949187	      0.93635532	     -1.02780558	     -0.33356337	      0.93635532	     -0.84642812	     -0.27101841	      0.78531536	     -0.78596897	     -0.16676709	      0.59653467	     -0.72550982	     -2.08470538	      4.35643608	     -5.38009061	      0.00000000	      0.00000000	      3.73887273	      2.77723085	      2.90798952	     24.74641254	    -34.86500453	      1.11949620	     54.25332057	     81.40601765	      4.28690034	     22.60828760	     -3.38730634	    -18.61388043	     24.69759298	     93.20639299	     89.46593781	     17.43603258	     16.55707477
      6.05555556	     -3.90869794	     -8.06876480	     98.62325041	      0.09051753	      0.98631268	      0.45206875	      0.92910383	     -0.82561409	     -3.96213729	      8.10694709	      0.14149292	     28.43061075	      8.94284168	      0.00000000	     -0.32287724	      0.91010021	     -4.37519538	      2.20251038	      0.03844106	     25.66313876	      8.46469181	      0.00000000	     -0.28873201	      0.32796470	     -0.97132983	     -0.53620421	      0.43619304	     -1.03203794	     -0.47435782	      0.79741336	     -1.03203794	     -0.32999181	      0.79741336	     -0.84991360	     -0.26811654	      0.66878561	     -0.78920548	     -0.16498147	      0.50801731	     -0.72849737	     -2.06238386	      3.71000223	     -5.40224509	      0.00000000	      0.00000000	      5.14689862	      3.49916975	      2.73209475	     21.86641305	    -34.89790269	      1.52750191	     58.52658445	     81.31239797	      4.86402346	     22.31778580	     -4.34073890	    -18.38238441	     23.50020433	     93.40049988	     89.46229445	     17.07991461	     15.97195979
